<svg enable-background="new 0 0 595.3 841.9" viewBox="0 0 595.3 841.9" xmlns="http://www.w3.org/2000/svg"><path d="m93 525.7c0-69.7 0-139.5 0-209.2.3-.3.7-.5.7-.8 1.9-8 3.2-16.2 5.7-23.9 6.6-20.7 19.2-37.4 36.1-51 20-16 43.1-23.9 68.4-24 63.3-.2 126.6.4 189.8.6 11.7 0 22.8 2.4 33.8 6.3 22.9 8.1 40.7 22.5 54.6 42.2 13.9 19.9 19.6 42.2 19.6 66 0 62.5-.3 124.9-.9 187.4-.1 9.1-1.9 18.4-4.5 27.1-5.8 19.7-16.7 36.4-32.2 50.1-14.2 12.6-30.3 21.4-48.9 25.7-4.9 1.1-9.9 2.1-14.9 3.2-69.2 0-138.4 0-207.6 0-.4-.3-.8-.8-1.2-.8-10.6-.6-20.5-3.8-30.1-7.8-18.1-7.6-33.3-19.4-45.3-34.9-9.6-12.5-16.6-26.4-20.1-41.8-.9-4.8-1.9-9.6-3-14.4zm105.3-284.9v.5c-3.4.3-6.9.3-10.1 1-21 4.6-38.8 14.7-52.1 31.7-12.5 16.1-19.1 34.4-19 55.1.2 61.3 0 122.7.1 184 0 5.3.6 10.7 1.5 15.9 3.6 21.9 14.6 39.7 31.8 53.3 15.7 12.4 33.8 19 54.2 19 60.2-.1 120.3.1 180.5-.1 7.6 0 15.4-.8 22.9-2.3 21.2-4 38-15.4 51.2-32.1 13.1-16.5 18.5-35.8 18.6-56.6.2-59.4.1-118.7 0-178.1 0-7.7-.6-15.5-2.4-23-4.7-20.3-15.4-37.2-31.9-50-16.7-12.9-35.9-18.5-56.8-18.6-62.9.2-125.7.3-188.5.3z" fill="#004f2d"/><g fill="#fff"><path d="m400.5 625.5c5-1.1 9.9-2.1 14.9-3.2 18.5-4.2 34.6-13.1 48.9-25.7 15.5-13.7 26.4-30.4 32.2-50.1 2.6-8.7 4.4-18 4.5-27.1.6-62.5.9-124.9.9-187.4 0-23.8-5.7-46.2-19.6-66-13.8-19.7-31.7-34.1-54.6-42.2-11-3.9-22.1-6.3-33.8-6.3-63.3-.2-126.6-.8-189.8-.6-25.3.1-48.5 7.9-68.4 24-16.9 13.6-29.5 30.3-36.1 51-2.5 7.8-3.8 16-5.7 23.9-.1.3-.5.5-.7.8 0-33.5 0-67 0-100.6h409.6v409.6c-34.2-.1-68.3-.1-102.3-.1z"/><path d="m93 525.7c1.1 4.8 2.1 9.6 3.2 14.5 3.5 15.5 10.5 29.4 20.1 41.8 12 15.6 27.2 27.3 45.3 34.9 9.6 4 19.5 7.2 30.1 7.8.4 0 .8.5 1.2.8-33.2 0-66.4 0-99.8 0-.1-33.3-.1-66.5-.1-99.8z"/><path d="m198.3 240.8c62.8 0 125.6-.1 188.4 0 20.9 0 40.1 5.6 56.8 18.6 16.5 12.8 27.2 29.7 31.9 50 1.7 7.4 2.3 15.3 2.4 23 .2 59.4.2 118.7 0 178.1-.1 20.8-5.5 40.1-18.6 56.6-13.2 16.6-30.1 28-51.2 31.9-7.5 1.4-15.3 2.2-22.9 2.3-60.2.2-120.3 0-180.5.1-20.4 0-38.5-6.5-54.2-19-17.2-13.6-28.1-31.4-31.8-53.3-.9-5.3-1.5-10.6-1.5-15.9-.1-61.3 0-122.7-.1-184-.1-20.7 6.5-39 19-55.1 13.3-17 31.1-27.1 52.1-31.7 3.3-.7 6.8-.7 10.1-1 .1-.3.1-.5.1-.6zm211 185.5c.1-66.1-49.5-119.2-116.7-116.9-29.8 1-55.4 12.4-76 34.2-23.4 24.8-34.1 54.3-30.8 88.3 2.6 27.7 14.3 51.2 34.5 70.5 21.2 20.3 46.8 31.1 75.8 31 34.1 0 63.3-13.2 86.1-39.2 18.1-20.9 26.6-45.6 27.1-67.9zm-27.2-124.4c0 19.4 15.2 33.8 31.9 34.4 20.7.7 35.5-15 36-33 .5-19.5-14.4-35.7-36.4-34.8-16.3.7-31.3 14.7-31.5 33.4z"/></g><path d="m409.3 426.3c-.5 22.4-9 47-27.2 67.9-22.7 26-51.9 39.2-86.1 39.2-29 0-54.6-10.8-75.8-31-20.1-19.3-31.9-42.8-34.5-70.5-3.2-34 7.4-63.6 30.8-88.3 20.6-21.7 46.2-33.2 76-34.2 67.2-2.3 116.8 50.8 116.8 116.9zm-123 82.8c37-.2 59-10.1 76.4-29.4s24.5-42.3 21.9-68.3c-4-39.9-37.9-78.7-90.1-78.1-44.1.5-88.8 38.8-84.9 95.1 2.8 40.8 39.2 81.4 76.7 80.7z" fill="#004f2d"/><path d="m382.1 301.9c.2-18.7 15.1-32.7 31.4-33.4 22-.9 36.9 15.3 36.4 34.8-.5 18-15.3 33.7-36 33-16.6-.6-31.8-15-31.8-34.4zm33.8 9.8c5.9-.1 10.2-4.1 10.2-9.7-.1-5.1-5-9.6-10.3-9.5-5.1.1-9.7 4.8-9.6 9.7-.1 5.6 4 9.5 9.7 9.5z" fill="#004f2d"/><path d="m286.3 509.1c-37.4.7-73.9-39.9-76.7-80.8-3.9-56.2 40.9-94.5 84.9-95.1 52.2-.6 86.1 38.2 90.1 78.1 2.6 26-4.6 49-21.9 68.3-17.4 19.4-39.5 29.3-76.4 29.5z" fill="#fff"/><path d="m415.9 311.7c-5.7 0-9.7-3.9-9.8-9.5-.1-4.9 4.6-9.6 9.6-9.7 5.3-.1 10.3 4.4 10.3 9.5.1 5.6-4.2 9.6-10.1 9.7z" fill="#fefefe"/></svg>