<svg viewBox="0 0 440 746.54" xmlns="http://www.w3.org/2000/svg" xmlns:xlink="http://www.w3.org/1999/xlink"><g fill="#592d29"><path d="m73.97 112.47c-2.79.12-5.47.17-8.13.41-.78.07-1.53.66-2.26 1.08-1.51.85-2.97 1.79-4.5 2.61-.87.47-1.91-.08-2.25-1.04-.2-.55.14-1.38.86-1.83 1.41-.88 2.84-1.7 4.27-2.55.11-.06.21-.14.37-.25-1.45-1-2.85-1.97-4.25-2.94-1.11-.77-2.22-1.55-3.32-2.34-.75-.53-.97-1.36-.58-2.1.37-.7 1.37-1.05 2.08-.71.39.19.77.42 1.13.67 2.78 1.92 5.56 3.87 8.34 5.78.24.16.57.26.85.24 4.07-.17 8.15-.35 12.22-.54.15 0 .33 0 .44-.09 2.14-1.53 4.26-3.06 6.54-4.7-1.51-.71-2.86-1.36-4.23-1.98-1.87-.85-3.76-1.67-5.63-2.52-1.78-.81-3.55-1.64-5.34-2.44-.24-.11-.54-.12-.8-.07-3.69.82-7.37 1.69-11.06 2.48-.53.11-1.19.06-1.66-.2-.36-.2-.7-.84-.7-1.28s.35-1.14.69-1.27c1.11-.45 2.29-.72 3.45-1 3.06-.72 6.12-1.39 9.18-2.13.87-.21 1.6.14 2.35.48 2.81 1.28 5.61 2.58 8.42 3.87.13.06.28.09.64.19 0-2.26 0-4.4-.01-6.55 0-.19-.13-.42-.27-.55-2.35-2.27-4.7-4.52-7.05-6.78-.25-.24-.49-.48-.72-.74-.62-.71-.67-1.65-.13-2.31.54-.67 1.53-.77 2.22-.2.56.47 1.1.97 1.63 1.48 1.36 1.33 2.69 2.68 4.06 4 1 .97 2.09 1.83 3.03 2.86.36.4.59 1.11.59 1.69 0 2.62-.08 5.25-.17 7.87-.02.56.12.85.6 1.05 1.23.51 2.43 1.11 3.67 1.61.25.1.66.04.88-.12 2.83-2 5.63-4.04 8.45-6.05 2.24-1.61 4.5-3.2 6.75-4.79 1.26-.9 3.15-.75 4.18.33 1.06 1.1 1.22 2.68.38 4.24-.6 1.11-1.26 2.17-1.96 3.37 1.06.22 2.04.43 3.02.62.95.19 1.91.34 2.86.53 1.54.31 3.08 2 2.61 3.96-.26 1.1-1 1.78-1.85 2.27-2.21 1.3-4.45 2.53-6.68 3.8-4.51 2.58-9.02 5.17-13.54 7.75-.33.19-.68.35-1.07.55 1.08 1.6 2.13 3.14 3.18 4.68.69 1.01 1.42 2 2.07 3.05.33.53.66.63 1.21.47 1.75-.49 3.5-.94 5.26-1.39 1.24-.32 2.21.48 2.11 1.72-.05.62-.31 1.13-.91 1.29-2.51.68-5.03 1.37-7.55 2.02-.68.18-1.23-.14-1.65-.76-.74-1.07-1.51-2.12-2.31-3.23-1.29.78-2.6 1.57-3.89 2.37-.19.12-.36.31-.5.5-.75 1.07-1.5 2.14-2.24 3.22-.63.92-1.64 1.19-2.39.64-.78-.58-.88-1.58-.19-2.61.83-1.25 1.66-2.49 2.55-3.69.29-.39.75-.64 1.16-.9 1.18-.75 2.37-1.47 3.67-2.27-.82-1.15-1.6-2.24-2.41-3.39-.54.28-1.09.54-1.62.84-2.94 1.68-5.88 3.38-8.82 5.07-4.11 2.35-8.22 4.7-12.34 7.03-1.89 1.07-3.78 2.15-5.69 3.15-2.38 1.25-4.77 1.16-6.96-.46-1.64-1.21-2.06-3.11-1.73-5.15.25-1.58.89-2.98 2.19-3.92 3.21-2.31 6.42-4.63 9.63-6.94.82-.59 1.65-1.18 2.48-1.77 2.3-1.67 4.6-3.34 6.9-5.02.06-.04.1-.11.21-.24z"/><path d="m118.16 113.86c.83-1.13 1.64-2.21 2.43-3.32.99-1.39 1.96-2.8 2.95-4.19.93-1.29 2.28-1.63 3.93-1.04 1.08.39 1.83 1.64 1.83 3.14 0 5.91.02 11.82 0 17.73 0 1.38.3 2.53 1.31 3.43.62.56 1.2 1.19 1.81 1.76 1.02.96.91 3.33-.12 4.31-.89.85-1.86 1.13-3.01 1.12-6.19-.03-12.38-.04-18.57 0-1.39.01-3.2-1.26-3.37-2.65-.14-1.12 0-2.1.87-2.89.78-.7 1.61-1.4 2.19-2.28.43-.64.66-1.57.67-2.38.07-3.92.03-7.84.03-11.76 0-.25 0-.5 0-.75.06-1.65.82-2.7 2.31-3.19 1.34-.45 2.69.04 3.53 1.25.39.56.8 1.12 1.21 1.68z"/><path d="m133.62 96.81c-.31.43-.53 1.06-.93 1.27-1.87.99-3.78 1.88-5.69 2.76-.81.37-1.82-.19-2.13-1.06-.22-.63.16-1.5.95-1.92 1.32-.71 2.67-1.35 4-2.02.48-.24.97-.49 1.47-.68 1.1-.43 2.17.32 2.33 1.65z"/></g><g stroke="#000" stroke-miterlimit="10"><path d="m96.14 157.44c-26.75 0-53.49 0-80.24-.02-1.61 0-3.27-.08-4.82-.46-4.04-.98-5.78-4.76-3.87-8.44 1.61-3.1 3.44-6.09 5.19-9.11 12.91-22.35 25.83-44.69 38.74-67.03 13.06-22.6 26.11-45.2 39.16-67.8.84-1.46 1.81-2.81 3.42-3.53 2.85-1.27 5.78-.26 7.57 2.71 2.08 3.46 4.08 6.97 6.1 10.46 9.5 16.43 18.99 32.86 28.49 49.29 7.16 12.4 14.32 24.8 21.48 37.19 8.87 15.35 17.75 30.69 26.62 46.04.33.58.66 1.16.95 1.76 1.9 3.89-.15 7.96-4.43 8.65-1.63.26-3.32.27-4.98.28-26.46.02-52.91.01-79.37.01zm-73.14-12.31h146.34c-24.44-42.3-48.76-84.38-73.17-126.62-24.44 42.29-48.78 84.41-73.17 126.62z" fill="#ef3800"/><path d="m349.72 157.44c-26.75 0-53.49 0-80.24-.02-1.61 0-3.27-.08-4.82-.46-4.04-.98-5.78-4.76-3.87-8.44 1.61-3.1 3.44-6.09 5.19-9.11 12.91-22.35 25.83-44.69 38.74-67.03 13.06-22.6 26.11-45.2 39.16-67.8.84-1.46 1.81-2.81 3.42-3.53 2.85-1.27 5.78-.26 7.57 2.71 2.08 3.46 4.08 6.97 6.1 10.46 9.5 16.43 18.99 32.86 28.49 49.29 7.16 12.4 14.32 24.8 21.48 37.19 8.87 15.35 17.75 30.69 26.62 46.04.33.58.66 1.16.95 1.76 1.9 3.89-.15 7.96-4.43 8.65-1.63.26-3.32.27-4.98.28-26.46.02-52.91.01-79.37.01zm-73.14-12.31h146.34c-24.44-42.3-48.76-84.38-73.17-126.62-24.44 42.29-48.78 84.41-73.17 126.62z" fill="#ef3800"/><g fill="#ffae0b"><path d="m350.01 549.84c-26.75 0-53.49 0-80.24-.02-1.61 0-3.27-.08-4.82-.46-4.04-.98-5.78-4.76-3.87-8.44 1.61-3.1 3.44-6.09 5.19-9.11 12.91-22.35 25.83-44.69 38.74-67.03 13.06-22.6 26.11-45.2 39.16-67.8.84-1.46 1.81-2.81 3.42-3.53 2.85-1.27 5.78-.26 7.57 2.71 2.08 3.46 4.08 6.97 6.1 10.46 9.5 16.43 18.99 32.86 28.49 49.29 7.16 12.4 14.32 24.8 21.48 37.19 8.87 15.35 17.75 30.69 26.62 46.04.33.58.66 1.16.95 1.76 1.9 3.89-.15 7.96-4.43 8.65-1.63.26-3.32.27-4.98.28-26.46.02-52.91.01-79.37.01zm-73.14-12.31h146.34c-24.44-42.3-48.76-84.38-73.17-126.62-24.44 42.29-48.78 84.41-73.17 126.62z"/><path d="m349.86 350.34c-26.75 0-53.49 0-80.24-.02-1.61 0-3.27-.08-4.82-.46-4.04-.98-5.78-4.76-3.87-8.44 1.61-3.1 3.44-6.09 5.19-9.11 12.91-22.35 25.83-44.69 38.74-67.03 13.06-22.6 26.11-45.2 39.16-67.8.84-1.46 1.81-2.81 3.42-3.53 2.85-1.27 5.78-.26 7.57 2.71 2.08 3.46 4.08 6.97 6.1 10.46 9.5 16.43 18.99 32.86 28.49 49.29 7.16 12.4 14.32 24.8 21.48 37.19 8.87 15.35 17.75 30.69 26.62 46.04.33.58.66 1.16.95 1.76 1.9 3.89-.15 7.96-4.43 8.65-1.63.26-3.32.27-4.98.28-26.46.02-52.91.01-79.37.01zm-73.14-12.31h146.34c-24.44-42.3-48.76-84.38-73.17-126.62-24.44 42.29-48.78 84.41-73.17 126.62z"/><path d="m96.14 549.84c-26.75 0-53.49 0-80.24-.02-1.61 0-3.27-.08-4.82-.46-4.04-.98-5.78-4.76-3.87-8.44 1.61-3.1 3.44-6.09 5.19-9.11 12.91-22.35 25.83-44.69 38.74-67.03 13.06-22.6 26.11-45.2 39.16-67.8.84-1.46 1.81-2.81 3.42-3.53 2.85-1.27 5.78-.26 7.57 2.71 2.08 3.46 4.08 6.97 6.1 10.46 9.5 16.43 18.99 32.86 28.49 49.29 7.16 12.4 14.32 24.8 21.48 37.19 8.87 15.35 17.75 30.69 26.62 46.04.33.58.66 1.16.95 1.76 1.9 3.89-.15 7.96-4.43 8.65-1.63.26-3.32.27-4.98.28-26.46.02-52.91.01-79.37.01zm-73.14-12.31h146.34c-24.44-42.3-48.76-84.38-73.17-126.62-24.44 42.29-48.78 84.41-73.17 126.62z"/></g><path d="m96.29 353.64c-26.75 0-53.49 0-80.24-.02-1.61 0-3.27-.08-4.82-.46-4.04-.98-5.78-4.76-3.87-8.44 1.61-3.1 3.44-6.09 5.19-9.11 12.91-22.35 25.83-44.69 38.74-67.03 13.06-22.6 26.11-45.2 39.16-67.8.84-1.46 1.81-2.81 3.42-3.53 2.85-1.27 5.78-.26 7.57 2.71 2.08 3.46 4.08 6.97 6.1 10.46 9.5 16.43 18.99 32.86 28.49 49.29 7.16 12.4 14.32 24.8 21.48 37.19 8.87 15.35 17.75 30.69 26.62 46.04.33.58.66 1.16.95 1.76 1.9 3.89-.15 7.96-4.43 8.65-1.63.26-3.32.27-4.98.28-26.46.02-52.91.01-79.37.01zm-73.14-12.31h146.34c-24.44-42.3-48.76-84.38-73.17-126.62-24.44 42.29-48.78 84.41-73.17 126.62z" fill="#ef3800"/><path d="m90.21 746.04c-26.75 0-53.49 0-80.24-.02-1.61 0-3.27-.08-4.82-.46-4.04-.98-5.78-4.76-3.87-8.44 1.61-3.1 3.44-6.09 5.19-9.11 12.91-22.35 25.83-44.69 38.74-67.03 13.06-22.6 26.11-45.2 39.16-67.8.84-1.46 1.81-2.81 3.42-3.53 2.85-1.27 5.78-.26 7.57 2.71 2.08 3.46 4.08 6.97 6.1 10.46 9.5 16.43 18.99 32.86 28.49 49.29 7.16 12.4 14.32 24.8 21.48 37.19 8.87 15.35 17.75 30.69 26.62 46.04.33.58.66 1.16.95 1.76 1.9 3.89-.15 7.96-4.43 8.65-1.63.26-3.32.27-4.98.28-26.46.02-52.91.01-79.37.01zm-73.14-12.31h146.34c-24.44-42.3-48.76-84.38-73.17-126.62-24.44 42.29-48.78 84.41-73.17 126.62z" fill="#3ed300"/></g><image height="512" transform="matrix(.13 0 0 .13 315.32 268.58)" width="512" xlink:href="../../../../../TFA/empreintes.png"/><image height="512" transform="matrix(.11 0 0 .11 320.9 471.37)" width="512" xlink:href="../../../../../TFA/sanglier.png"/><image height="512" transform="matrix(.14 0 0 .14 59.23 468.26)" width="512" xlink:href="../../../../../TFA/barriere-de-circulation.png"/><image height="512" transform="matrix(.12 0 0 .11 64.3 279.11)" width="512" xlink:href="../../../../../TFA/plage.png"/><image height="512" transform="matrix(.17 0 0 .13 47.31 661.26)" width="512" xlink:href="../../../../../TFA/paysage.png"/><image height="512" transform="matrix(.13117684 .04891458 -.04891458 .13117684 320.62 68.93)" width="512" xlink:href="../../../../../TFA/fusil.png"/></svg>