<?xml version="1.0" encoding="utf-8"?>
<!-- Generator: Adobe Illustrator 27.3.1, SVG Export Plug-In . SVG Version: 6.00 Build 0)  -->
<svg version="1.1" id="Calque_1" xmlns="http://www.w3.org/2000/svg" xmlns:xlink="http://www.w3.org/1999/xlink" x="0px" y="0px"
	 viewBox="0 0 595.3 841.9" style="enable-background:new 0 0 595.3 841.9;" xml:space="preserve">
<style type="text/css">
	.st0{fill:#E63C11;stroke:#000000;stroke-miterlimit:10;}
</style>
<path class="st0" d="M297.6,499.8c-26.7,0-53.5,0-80.2,0c-1.6,0-3.3-0.1-4.8-0.5c-4-1-5.8-4.8-3.9-8.4c1.6-3.1,3.4-6.1,5.2-9.1
	c12.9-22.3,25.8-44.7,38.7-67c13.1-22.6,26.1-45.2,39.2-67.8c0.8-1.5,1.8-2.8,3.4-3.5c2.9-1.3,5.8-0.3,7.6,2.7
	c2.1,3.5,4.1,7,6.1,10.5c9.5,16.4,19,32.9,28.5,49.3c7.2,12.4,14.3,24.8,21.5,37.2c8.9,15.3,17.8,30.7,26.6,46
	c0.3,0.6,0.7,1.2,1,1.8c1.9,3.9-0.1,8-4.4,8.7c-1.6,0.3-3.3,0.3-5,0.3C350.5,499.8,324.1,499.8,297.6,499.8z M224.5,487.5
	c48.7,0,97.4,0,146.3,0c-24.4-42.3-48.8-84.4-73.2-126.6C273.2,403.2,248.9,445.3,224.5,487.5z"/>
<image style="overflow:visible;" width="512" height="512" xlink:href="../../../../../TFA/plage.png"  transform="matrix(0.1245 0 0 0.1104 265.609 425.312)">
</image>
</svg>
