<?xml version="1.0" encoding="UTF-8"?><svg id="Calque_1" xmlns="http://www.w3.org/2000/svg" viewBox="0 0 350.57 350.74"><path d="m350.57,164.33v21.91c-.21,1.1-.53,2.19-.62,3.29-2.15,28.63-11.08,54.98-26.34,79.28-39.37,62.7-114.79,94.09-186.96,77.56-38.76-8.88-70.97-28.67-96.36-59.25C17.54,259.73,4.24,228.23.87,192.7c-2.48-26.13.23-51.7,9.23-76.43,12.78-35.1,34.38-63.54,65.07-84.94,21.15-14.74,44.37-24.58,69.89-28.7C151.46,1.61,157.91.87,164.33,0c7.3,0,14.61,0,21.91,0,1.45.23,2.9.56,4.36.68,18.53,1.53,36.42,5.76,53.46,13.2,34.97,15.29,62.52,39.15,82.1,72.01,10.89,18.27,18.36,37.84,21.73,58.89,1.04,6.49,1.8,13.03,2.68,19.55Zm-187.36,40.22h4.97c35.6,0,71.21,0,106.81,0,11.47,0,17.18-5.78,17.2-17.33,0-7.87,0-15.75,0-23.62,0-11.97-5.64-17.6-17.63-17.6-35.6,0-71.21,0-106.81,0h-3.85c-.18-.38-.35-.77-.53-1.15,1.01-.74,2.13-1.36,3-2.23,12.86-12.8,25.7-25.62,38.51-38.47,7.51-7.53,7.47-15.43-.07-23.01-6.04-6.07-12.09-12.12-18.16-18.16-7.37-7.33-15.84-7.41-23.13-.13-33.66,33.63-67.31,67.28-100.94,100.95-7.2,7.21-7.23,15.73-.06,22.91,33.71,33.75,67.44,67.48,101.19,101.19,7.02,7.01,15.59,6.97,22.64-.02,6.08-6.02,12.12-12.09,18.16-18.15,7.64-7.66,7.67-16,.07-23.62-12.74-12.76-25.5-25.5-38.24-38.26-.86-.86-1.68-1.77-3.13-3.31Z"/></svg>