<?xml version="1.0" encoding="UTF-8"?><svg id="Calque_1" xmlns="http://www.w3.org/2000/svg" xmlns:xlink="http://www.w3.org/1999/xlink" viewBox="0 0 1151.01 299.99"><defs><style>.cls-1{clip-path:url(#clippath);}.cls-2{fill:#fffcf6;}.cls-3{fill:#17140f;}.cls-3,.cls-4{stroke:#e7c069;stroke-miterlimit:10;}.cls-4{fill:none;}.cls-5{fill:#004f2d;font-family:Kallisto-Bold, Kallisto;font-size:200px;font-weight:700;}</style><clipPath id="clippath"><path class="cls-4" d="m204.46.5c-11.02,0-27.14,5.52-35.86,12.25L7.04,137.8c-8.71,6.73-8.71,17.78,0,24.51l161.57,124.94c8.71,6.73,24.84,12.25,35.86,12.25h926.02v-.2c11.02,0,20.03-8.94,20.03-19.89V20.39c0-10.95-9.01-19.89-20.03-19.89H204.46Z"/></clipPath></defs><rect class="cls-2" x="130.5" y="113.13" width="185.07" height="129.7" transform="translate(-62.05 190.31) rotate(-41.07)"/><rect class="cls-2" x="65.38" y="72.97" width="185.07" height="73.17" transform="translate(-33.12 130.69) rotate(-41.07)"/><rect class="cls-2" x="204.47" y="18.99" width="930.71" height="260.54"/><g class="cls-1"><path class="cls-3" d="m1125.86,274.92H205.07l-134.01-124.47L205.07,25.98h920.8v248.94M.02,0v300.9h1151V0H.02Z"/></g><path class="cls-4" d="m204.46.5c-11.02,0-27.14,5.52-35.86,12.25L7.04,137.8c-8.71,6.73-8.71,17.78,0,24.51l161.57,124.94c8.71,6.73,24.84,12.25,35.86,12.25h926.02v-.2c11.02,0,20.03-8.94,20.03-19.89V20.39c0-10.95-9.01-19.89-20.03-19.89H204.46Z"/><text class="cls-5" transform="translate(278.28 215.74)"><tspan x="0" y="0">SWIPE</tspan></text></svg>