<?xml version="1.0" encoding="UTF-8"?><svg id="Calque_1" xmlns="http://www.w3.org/2000/svg" viewBox="0 0 383.31 185.65"><defs><style>.cls-1{fill:#e4d8ba;}</style></defs><path class="cls-1" d="m0,89.84c3.02-8.99,9.39-12.09,18.68-12.08,102.67.16,205.34.1,308.01.1,1.45,0,2.9,0,5.16,0-1.63-1.7-2.68-2.85-3.78-3.95-16.08-16.02-32.17-32.05-48.27-48.06-4.29-4.27-5.67-9.42-4.05-15.11,1.59-5.58,5.52-9.14,11.23-10.39,5.58-1.22,10.27.65,14.27,4.63,14.58,14.53,29.19,29.03,43.79,43.54,10.88,10.82,21.76,21.64,32.62,32.48,7.54,7.53,7.57,16.08.01,23.61-25.28,25.18-50.58,50.34-75.88,75.49-6.99,6.95-16,7.39-22.24,1.16-6.24-6.23-5.84-15.37,1.05-22.24,15.9-15.86,31.81-31.7,47.74-47.53.97-.96,2.09-1.78,3.14-2.66-.1-.35-.2-.69-.31-1.04h-4.11c-102.79,0-205.59-.06-308.38.1-9.28.01-15.65-3.1-18.68-12.08v-5.99Z"/></svg>