<?xml version="1.0" encoding="UTF-8"?><svg id="Calque_1" xmlns="http://www.w3.org/2000/svg" viewBox="0 0 88.2 77.4"><defs><style>.cls-1{fill:#da5d39;}.cls-2{isolation:isolate;}</style></defs><g class="cls-2"><path class="cls-1" d="m0,77.4v-33.3c0-6,.65-11.65,1.95-16.95,1.3-5.3,3.3-9.95,6-13.95,2.7-4,6.15-7.2,10.35-9.6,4.2-2.4,9.1-3.6,14.7-3.6v15c-3.4,0-6.2.85-8.4,2.55-2.2,1.7-4,3.95-5.4,6.75-1.4,2.8-2.35,5.95-2.85,9.45-.5,3.5-.75,6.95-.75,10.35h17.7v33.3H0Zm54.9,0v-33.3c0-6,.65-11.65,1.95-16.95,1.3-5.3,3.3-9.95,6-13.95,2.7-4,6.15-7.2,10.35-9.6,4.2-2.4,9.1-3.6,14.7-3.6v15c-3.4,0-6.2.85-8.4,2.55-2.2,1.7-4,3.95-5.4,6.75-1.4,2.8-2.35,5.95-2.85,9.45-.5,3.5-.75,6.95-.75,10.35h17.7v33.3h-33.3Z"/></g></svg>