<?xml version="1.0" encoding="utf-8"?>
<!-- Generator: Adobe Illustrator 27.3.1, SVG Export Plug-In . SVG Version: 6.00 Build 0)  -->
<svg version="1.1" id="Calque_1" xmlns="http://www.w3.org/2000/svg" xmlns:xlink="http://www.w3.org/1999/xlink" x="0px" y="0px"
	 viewBox="0 0 88.2 77.4" style="enable-background:new 0 0 88.2 77.4;" xml:space="preserve">
<style type="text/css">
	.st0{fill:#DA5D39;}
</style>
<g>
	<path class="st0" d="M88.2,0l0,33.3c0,6-0.6,11.7-1.9,17c-1.3,5.3-3.3,10-6,14c-2.7,4-6.1,7.2-10.3,9.6c-4.2,2.4-9.1,3.6-14.7,3.6
		l0-15c3.4,0,6.2-0.9,8.4-2.6c2.2-1.7,4-4,5.4-6.8c1.4-2.8,2.3-6,2.8-9.5c0.5-3.5,0.7-7,0.7-10.4l-17.7,0l0-33.3
		C54.9,0,88.2,0,88.2,0z M33.3,0l0,33.3c0,6-0.6,11.7-1.9,17c-1.3,5.3-3.3,10-6,14s-6.1,7.2-10.3,9.6c-4.2,2.4-9.1,3.6-14.7,3.6
		l0-15c3.4,0,6.2-0.9,8.4-2.6c2.2-1.7,4-4,5.4-6.8s2.3-6,2.8-9.5c0.5-3.5,0.7-7,0.7-10.4L0,33.3L0,0C0,0,33.3,0,33.3,0z"/>
</g>
</svg>
