<svg viewBox="0 0 533.09 982.85" xmlns="http://www.w3.org/2000/svg"><path d="m205.17 4.39 35.76-4.39c-1.23.38-2.48.66-3.75.85-2.51.5-4.9.8-7.41 1.3.76.41 1.63.57 2.49.47 5.23-.45 10.39-1.47 15.7-1.34 8.22.1 16.42.79 24.54 2.05 9.26 1.34 18.42 3.28 27.43 5.79 17.5 4.91 34.31 12.01 50.03 21.12 13.04 7.54 25.47 16.11 37.15 25.63 13.72 11.13 26.5 23.37 38.21 36.6 14.21 16.3 27.06 33.75 38.41 52.15 10.22 16.42 19.29 33.53 27.15 51.2 9 20.33 16.53 41.27 22.55 62.67 2.8 9.98 5.03 20.03 7.57 30.23 3.93 15.68 6.05 31.78 8.31 47.86 2 13.97 2.74 28.1 3.33 42.24.71 17.44.56 34.79-.16 52.21-1.14 26-3.64 51.91-7.47 77.65-5.17 37.05-13.05 72.89-22.14 108.28-7.38 28.37-16.18 55.55-24.97 82.92-4.45 13.79-9.51 27.26-14.6 40.55-8.65 22.68-17.13 45.53-26.43 67.52-11.53 27.12-23.69 53.74-36.04 79.99-8.39 17.78-17.46 34.67-26.51 51.75-5.67 10.82-11.32 21.84-17.63 32.16-8.18 13.66-21.51 14.52-32.63 3.03-4.44-4.71-8.87-9.43-13.19-14.35-11.62-13.18-23.24-26.36-34.51-40.17-12.58-15.2-24.79-30.84-37-46.48-11.71-15.12-23.31-30.44-34.79-45.98-20.73-28.03-40.31-57.18-59.54-86.95-17.12-26.53-33.46-53.73-48.94-82.02-17.66-32.11-34.17-65.33-48.31-100.21-13.34-33.03-25.21-66.83-33.58-102.41-3.86-16.28-7.45-32.78-9.5-49.47-1.3-10.55-2.31-21.14-3.18-31.75-1.53-18.49-1.9-37.04-1.12-55.57.77-21.09 2.92-42.11 6.42-62.92 7.38-42.9 21.43-84.38 41.63-122.94 4.41-8.33 9.47-15.96 14.51-23.79 7.14-10.87 14.98-21.27 23.47-31.12 13.53-15.49 28-29.15 43.81-40.05 16.06-11.13 32.81-20.19 50.64-26.28 10.02-3.37 20.08-6.36 30.66-7.47.7-.09 1.52-.38 2.23-.47l-.02-.19c-2.86-.03-5.7.13-8.56.09zm187.86 331.39c-9.62-91.14-73.97-169.51-149.3-161.63-67 7.06-119.36 88.08-108.11 188.95 10.37 92.6 72.98 166.13 144.35 162.04 72.1-3.98 124.68-88.93 113.06-189.36z" fill="#e4d8ba" opacity=".37"/></svg>