<?xml version="1.0" encoding="UTF-8"?><svg id="Calque_1" xmlns="http://www.w3.org/2000/svg" viewBox="0 0 137.09 154.14"><defs><style>.cls-1{fill:#fff;}</style></defs><path class="cls-1" d="m137,40.76c0,.89,0,1.79,0,2.68.03,30.29.07,60.57.09,90.86,0,6.21-.1,12.41-.1,18.62,0,.91-.2,1.23-1.17,1.23-6.33-.05-12.66-.03-19-.05-2,0-2.02-.03-2.02-1.97-.01-16-.02-32-.03-47.99,0-3.17-.04-6.33-.07-9.5,0-.23-.04-.47-.06-.7-.11-.07-.22-.15-.33-.22-2.44,2.52-4.84,5.08-7.33,7.55-10.51,10.41-21.03,20.8-31.58,31.16-2.4,2.36-1.8,2.3-4.17-.04-15.2-15.02-30.36-30.08-45.54-45.13-4.53-4.49-9.15-8.88-13.56-13.47C5.44,66.85,1.3,58.6.28,48.99-2.21,25.46,12.21,8.27,29.4,2.58c11.68-3.87,23.35-3.54,34.35,2.1,13.05,6.69,21.41,17.31,23.86,31.98,1.72,10.33-.27,20.1-5.55,29.21-3.55,6.13-8.6,10.75-14.3,14.78-.88.62-1.6.64-2.41-.17-5-5.01-10.04-9.99-15.05-14.99-.22-.22-.35-.52-.43-.64,2.29-1.17,4.67-2.05,6.65-3.47,7.52-5.4,10.7-12.86,8.84-21.91-1.86-9.02-7.74-14.72-16.68-16.83-12.46-2.94-24.86,5.93-26.27,18.64-.75,6.82,1.38,12.76,6.22,17.63,8.94,8.97,17.93,17.89,26.92,26.81,5.74,5.69,11.51,11.35,17.26,17.02.15.14.3.27.52.46,21.09-20.88,42.16-41.73,63.22-62.58.15.05.3.09.46.14Z"/><path class="cls-1" d="m10.03,87.19c1.46,1.4,2.93,2.78,4.37,4.2,5.61,5.58,11.22,11.16,16.78,16.78.38.39.62,1.09.63,1.65.02,14.08.02,28.15-.01,42.23,0,2.39.25,2.07-2.07,2.08-6,0-11.99,0-17.99-.03-2.05,0-2.06-.03-2.06-2.02,0-20.82,0-41.64,0-62.47,0-.77,0-1.54,0-2.31.12-.04.24-.07.36-.11Z"/></svg>