<?xml version="1.0" encoding="UTF-8"?><svg id="Calque_1" xmlns="http://www.w3.org/2000/svg" viewBox="0 0 81.75 460.68"><defs><style>.cls-1{letter-spacing:0em;}.cls-2{stroke-miterlimit:10;stroke-width:1px;}.cls-2,.cls-3{fill:#e7c068;stroke:#e7c069;}.cls-4{letter-spacing:0em;}.cls-5{letter-spacing:0em;}.cls-3{font-family:Kallisto-Bold, Kallisto;font-size:75px;font-weight:700;stroke-width:3px;}.cls-3,.cls-6{isolation:isolate;}.cls-7{letter-spacing:-.02em;}</style></defs><g id="Groupe_60"><g id="PathMate" class="cls-6"><text class="cls-3" transform="translate(65.47 459.18) rotate(-90)"><tspan class="cls-5" x="0" y="0">Pa</tspan><tspan x="104.02" y="0">thM</tspan><tspan class="cls-4" x="261.15" y="0">a</tspan><tspan class="cls-7" x="308.1" y="0">t</tspan><tspan class="cls-1" x="342.6" y="0">e</tspan></text></g><path id="localisation" class="cls-2" d="m18.61,8.45l2.06-2.21c-.06.09-.13.17-.2.25-.14.16-.28.31-.41.48.07-.02.12-.06.17-.11.31-.31.59-.65.93-.94.51-.45,1.05-.87,1.61-1.27.62-.44,1.27-.87,1.93-1.25,1.24-.72,2.55-1.31,3.91-1.75,1.07-.35,2.17-.62,3.28-.81,1.24-.22,2.5-.33,3.76-.34,1.46,0,2.92.15,4.36.42,1.23.23,2.45.57,3.62,1,1.31.49,2.57,1.1,3.77,1.82.55.33,1.07.7,1.61,1.06.82.57,1.59,1.21,2.32,1.89.64.59,1.24,1.22,1.8,1.89.7.82,1.35,1.68,1.96,2.58.92,1.35,1.74,2.77,2.46,4.23,1.06,2.12,1.96,4.31,2.7,6.56.61,1.8,1.09,3.63,1.57,5.47.24.93.44,1.87.62,2.81.32,1.6.65,3.19.9,4.79.3,1.98.55,3.96.77,5.94.15,1.34.22,2.68.3,4.02.05.85.12,1.71.11,2.57.03,1.05-.79,1.94-1.85,1.97-.02,0-.05,0-.07,0-.45.02-.91.03-1.36.03-1.22,0-2.44,0-3.66-.05-1.36-.05-2.71-.13-4.06-.22-1.3-.09-2.6-.2-3.9-.32-2.35-.22-4.67-.56-6.99-.95-2.07-.35-4.11-.78-6.14-1.3-2.31-.58-4.58-1.32-6.79-2.23-2.09-.85-4.08-1.91-5.95-3.16-.86-.57-1.68-1.21-2.45-1.9-.48-.45-.94-.91-1.39-1.38-.79-.83-1.52-1.72-2.16-2.67-.75-1.09-1.42-2.25-1.97-3.45-.51-1.12-.93-2.28-1.25-3.47-.42-1.6-.68-3.24-.79-4.89-.04-.66,0-1.31,0-1.98.04-.95.13-1.9.29-2.84.25-1.51.66-2.99,1.22-4.41.57-1.45,1.3-2.83,2.16-4.12.49-.74,1.03-1.43,1.63-2.08.04-.04.08-.1.12-.15h0c-.18.15-.35.32-.53.47Zm24.2,5.81c-4.34-4.14-11.21-3.98-15.35.35-4.14,4.34-3.98,11.21.35,15.35,4.23,4.04,10.91,4,15.1-.09,4.29-4.2,4.36-11.08.15-15.37-.08-.08-.16-.16-.25-.24Z"/></g></svg>