<?xml version="1.0" encoding="UTF-8"?><svg id="Calque_1" xmlns="http://www.w3.org/2000/svg" xmlns:xlink="http://www.w3.org/1999/xlink" viewBox="0 0 180.2 157.94"><defs><style>.cls-1{fill:#f8ac1a;stroke:#000;stroke-miterlimit:10;}</style></defs><path class="cls-1" d="m90.21,157.44c-26.75,0-53.49,0-80.24-.02-1.61,0-3.27-.08-4.82-.46-4.04-.98-5.78-4.76-3.87-8.44,1.61-3.1,3.44-6.09,5.19-9.11,12.91-22.35,25.83-44.69,38.74-67.03,13.06-22.6,26.11-45.2,39.16-67.8.84-1.46,1.81-2.81,3.42-3.53,2.85-1.27,5.78-.26,7.57,2.71,2.08,3.46,4.08,6.97,6.1,10.46,9.5,16.43,18.99,32.86,28.49,49.29,7.16,12.4,14.32,24.8,21.48,37.19,8.87,15.35,17.75,30.69,26.62,46.04.33.58.66,1.16.95,1.76,1.9,3.89-.15,7.96-4.43,8.65-1.63.26-3.32.27-4.98.28-26.46.02-52.91.01-79.37.01Zm-73.14-12.31h146.34c-24.44-42.3-48.76-84.38-73.17-126.62-24.44,42.29-48.78,84.41-73.17,126.62Z"/><image width="512" height="512" transform="translate(55.67 75.68) scale(.13)" xlink:href="../../../../../TFA/empreintes.png"/></svg>