<svg viewBox="0 0 249.37 383.47" xmlns="http://www.w3.org/2000/svg"><path d="m68.22 383.47c-5.74-1.48-11.62-2.55-17.19-4.5-31.54-11.03-51.99-41.69-50.46-75.28 1.67-36.36 29.09-67.34 64.8-71.91 32.28-4.13 57.71 7.95 75.96 34.96.55.82 1.09 1.64 1.78 2.67 11.63-4.49 23.18-8.96 35.38-13.67-1.75-.91-2.9-1.53-4.07-2.12-35.05-17.85-70.07-35.75-105.19-53.46-3.3-1.66-4.33-3.52-4.27-7.11.21-12.47-.03-24.95.05-37.42.02-2.71-.65-3.8-3.57-4.34-30.95-5.68-55.95-31.72-60.56-62.86-6.19-41.72 20.94-79.74 62.24-87.25 40.95-7.45 81.61 21.31 88.25 62.26 2.08 12.8 1.09 25.28-2.98 37.88 4.66 2.44 9.25 4.86 13.86 7.26 9.27 4.84 18.51 9.74 27.84 14.43 1.2.6 3.16.69 4.37.14 8.85-3.98 17.57-8.24 26.4-12.26 1.99-.9 2.8-1.98 2.73-4.18-.16-4.86-.17-9.73 0-14.59.04-1.02 1.1-2.84 1.74-2.86 6.82-.22 13.65-.16 20.73-.18.05 21.52.1 42.64.15 63.96l-22.53.05c-.01-5.99-.03-11.91-.04-18.48-6.92 3.22-13.23 6.11-19.45 9.16-.62.3-1.03 1.65-1.03 2.51.03 33.05.11 66.1.19 99.81 15.34-5.9 30.32-11.66 45.51-17.5.18 1 .38 1.58.38 2.17 0 20.83.36 41.67-.15 62.49-.41 17-15.17 30.37-32.9 30.92-17.13.53-32.21-11.98-34.4-28.53-.21-1.57-.38-3.15-.59-4.99 7.66-.02 14.97-.04 22.53-.05.17.77.33 1.59.54 2.39 1.4 5.58 6.43 9.05 12.37 8.56 5.17-.43 9.89-4.78 10.02-9.93.23-8.73.05-17.46.04-26.19 0-1.11 0-2.22 0-3.99-25.32 9.77-50.2 19.38-74.59 28.79.21 7.87 1.01 15.44.51 22.93-2.12 31.6-24.17 58.58-54.56 67.26-4.15 1.18-8.4 2.02-12.6 3.01-5.74.01-11.48.03-17.22.04zm53.08-105.65c-13.62-22.98-45.98-31-70.2-17.78-25.57 13.96-35.4 45.68-22.16 71.53s44.32 36.48 70.58 24.2c24.28-11.36 34.3-38.22 29.62-56.64-16.09 6.2-32.15 12.38-48.46 18.66-2.78-7.25-5.41-14.11-8.1-21.11 16.47-6.38 32.44-12.56 48.71-18.86zm6.44-187.26c6.41-21.05-2.14-44.86-20.6-57.93-18.85-13.35-43.94-13.16-62.53.45-18.8 13.77-26.63 37.75-19.52 59.77 5.88 18.17 24.96 35.27 40.03 35.39-.05-23.33-.11-46.65-.17-70.42 21.31 11.11 42.02 21.91 62.79 32.74zm52.65 140.64c-.06-25.76-.12-50.75-.18-76.29-26.08 12.21-51.74 24.22-77.97 36.5 26.32 13.4 51.99 26.47 78.14 39.79zm-92.56-58.06c26.39-12.36 52.15-24.42 78.61-36.82-10.04-5.23-19.25-10.03-28.55-14.88-12.5 16.15-28.29 26.42-48.18 30.13-.77.14-1.82 1.65-1.84 2.55-.15 6.09-.06 12.19-.04 19.02zm-.02-77.84c.03 11.51.05 22.32.08 33.46 11.84-2.81 21.48-8.62 29.46-18.05-9.93-5.18-19.48-10.16-29.54-15.41z" fill="#e7c069"/></svg>