<svg viewBox="0 0 880.91 1444.1" xmlns="http://www.w3.org/2000/svg"><path d="m880.91 358.44v148.93c-.69 1.23-1.21 2.55-1.53 3.92-2.76 10.25-11.96 17.79-21.77 18.09-11.65.3-20.85-6.03-23.91-16.88-.98-3.54-1.5-7.18-1.53-10.85-.31-9.35 0-18.99 0-29.24-7.36 3.92-13.8 7.54-20.54 11.16-32.8 16.88-65.6 33.77-98.41 50.35-2.15 1.21-3.37 2.41-3.37 5.12v381.08c-.04 1.31.06 2.63.31 3.92 1.53-.6 2.45-1.21 3.68-1.81 12.57-6.33 24.83-12.66 37.4-18.69 8.58-4.22 17.17-8.44 26.36-11.76 11.34-3.92 24.22 3.02 27.9 14.17 1.48 4.37 2.21 8.96 2.15 13.57 0 53.66.31 107.03 0 160.69.04 6.5-.68 12.97-2.15 19.3-8.89 41.91-61.93 71.45-105.46 46.73-24.83-14.17-38.32-35.27-38.93-63.61-.31-16.58 17.17-27.74 32.8-22.01 11.34 4.22 15.33 12.96 15.94 23.82.92 15.38 14.41 23.21 25.45 22.61 13.49-.6 23.3-11.16 23.3-24.72v-124.52c.04-1.41-.06-2.83-.31-4.22-1.28.48-2.52 1.08-3.68 1.81-61.01 30.15-122.32 60.3-183.33 90.45-5.21 2.71-5.21 1.51-3.07 6.93 8.05 21.32 13.71 43.46 16.86 66.03 3.73 26.74 3.32 53.89-1.23 80.5-9.81 57.89-34.03 109.14-74.8 152.25-26.82 28.65-59.28 51.44-95.34 66.93-30.96 13.26-63.15 22.61-97.49 23.52-.83.13-1.65.33-2.45.6 3.07.6 5.52.9 7.66 1.51h-51.81c1.41-.48 2.84-.88 4.29-1.21-6.44-.6-12.57-.9-18.39-1.81-39.24-5.13-75.72-17.79-110.06-37.08-20.85-11.76-39.24-26.23-56.41-42.81-57.02-55.47-85.22-123.31-88.29-201.39-.92-21.71 1.84-43.11 6.74-64.22 12.26-53.06 36.18-99.79 74.8-139.29 22.13-22.86 47.8-41.99 76.03-56.68 32.56-16.41 67.73-27.02 103.93-31.35 39.55-4.82 78.48-.6 116.5 10.85 48.9 14.53 93.17 41.55 128.45 78.39 13.18 13.57 24.53 28.64 34.95 44.62.92 1.81 1.84 3.01 4.29 1.51 25.75-12.96 51.81-25.63 77.56-38.29 3.37-1.81 6.74-3.32 10.42-5.12-1.74-1.34-3.59-2.55-5.52-3.62-39.24-24.12-78.79-48.54-118.03-72.66-16.25-9.95-32.5-19.9-48.44-29.85-32.19-19.9-64.69-39.8-96.87-59.69-4.91-3.02-4.6-3.02-9.2.6-14.1 11.16-29.43 19.3-47.52 21.71-33.42 4.82-62.85-4.22-85.53-28.64-25.14-26.83-33.42-58.79-22.69-94.36.92-2.71.61-4.52-2.15-6.03-8.58-5.13-17.17-10.85-25.75-16.28-5.52-3.62-10.73-6.93-16.25-10.55-4.29 8.14-8.28 16.28-12.57 23.82-6.74 12.06-20.23 15.98-32.5 9.95-11.5-5.63-16.41-19.42-11.04-31.05 8.28-17.19 17.17-34.07 26.06-50.95 5.21-9.65 19.93-15.07 30.66-8.44l12.88 8.14 55.18 36.18c2.15 1.51 3.68 1.51 5.82-.3 5.62-4.27 11.57-8.1 17.78-11.46 6.44-3.32 13.18-5.73 19.93-8.44v-49.74c0-2.71-1.53-2.71-3.37-2.71-30.4-2.85-60.18-10.38-88.29-22.31-33.42-14.17-62.84-34.37-88.9-59.39-34.64-33.16-59.17-72.66-74.19-117.88-7.84-23.79-12.38-48.54-13.49-73.56-.92-18.69-.61-37.38 2.45-55.78 4.9-28.64 13.18-56.38 26.06-82.61 26.67-54.87 67.14-97.38 120.48-127.23 55.52-31.11 115.6-42.56 179.06-34.72 40.16 4.82 78.17 16.58 112.82 37.38 57.33 34.37 99.63 81.1 124.16 142.91 14.41 36.18 21.77 73.56 20.85 112.15-1.11 42.73-11.8 84.66-31.27 122.7-1.23 2.41-.92 3.32 1.23 4.82 38.01 23.21 75.72 46.43 113.43 69.94 5.83 3.62 10.12 3.92 16.55.6 48.44-24.42 95.65-48.54 142.86-72.66 2.15-1.21 3.07-2.41 3.07-4.82v-41c-.1-5.84.1-11.67.61-17.49 1.23-11.16 11.04-19.6 21.77-20.2 11.96-.6 22.07 6.63 24.83 18.09.64 1.15 1.15 2.36 1.53 3.62zm-380.14 668.1c-64.38-102.81-201.41-143.21-315.46-87.13-125.08 61.8-165.85 204.11-112.51 316.86 57.02 120.59 200.8 173.96 325.57 116.67 117.72-53.66 169.84-188.13 124.47-303.9-3.68 1.81-7.36 3.92-11.04 5.73-65.91 32.56-131.82 65.02-197.73 97.38-4.82 2.45-9.85 4.47-15.02 6.03-16.86 4.22-30.35-11.76-28.2-26.23 1.53-9.95 7.66-15.98 16.25-20.2 59.78-29.24 119.25-58.79 179.03-88.03 11.34-5.74 22.68-11.46 34.64-17.19zm-230.84-498.06v-234.56c.04-3.22.25-6.44.61-9.65 1.84-15.07 18.09-24.12 32.19-18.09 3.68 1.51 7.36 3.92 11.04 6.03 33.42 20.5 66.53 41 99.94 61.5 31.88 19.6 64.07 39.49 95.96 59.09 3.68 2.11 3.98 2.11 5.83-1.81 10.96-23.01 18.11-47.65 21.15-72.96 3.07-25.32 2.76-50.65-2.15-75.67-11.34-56.08-38.93-103.11-84-139.59-41.39-33.47-88.9-52.46-142.55-55.47-26.1-1.46-52.28 1.18-77.56 7.84-95.65 24.72-170.14 107.63-179.34 209.53-3.21 33.15.44 66.61 10.73 98.28 14.41 43.71 40.47 79.89 75.72 109.74 30.35 25.63 65.6 42.21 104.85 50.65 9.2 2.41 18.09 3.62 27.59 5.13zm390.87 390.73v-358.17c-1.09.57-2.22 1.07-3.37 1.51-26.98 13.87-53.65 28.04-80.63 41.91-61.31 31.66-122.73 63.21-184.25 94.67-2.45 1.21-3.07 2.71-2.45 5.43.92 5.43 2.15 11.16 1.84 16.88-.61 9.05-2.45 17.79-3.98 26.53-.31 2.11-.31 3.62 1.84 4.82 7.66 4.52 15.02 9.35 22.69 13.87 80.32 49.44 160.54 98.79 240.65 148.03 2.45 1.51 4.91 2.71 7.66 4.52zm-131.82-457.96c-.92 1.21-2.15 2.71-3.07 3.92-4.9 6.03-9.5 12.06-14.72 17.49-13.49 13.87-27.59 26.83-43.23 37.99-43.53 31.05-91.97 49.44-145.31 54.57-3.07.3-3.68 1.51-3.68 4.22v45.22c0 3.02.92 4.22 3.98 5.13 16.86 4.22 30.66 13.27 42.61 25.93.75.8 1.37 1.72 1.84 2.71 87.98-45.52 175.05-90.45 262.42-135.67-34.03-20.5-67.14-41-100.86-61.5zm-41.39-25.63c-56.41-34.67-112.2-69.34-168.3-103.71v196.57c68.67-8.74 125.08-38.29 168.3-92.86zm-169.84 328.92c-24.22-15.38-48.13-30.45-71.74-45.52-1.42 18.59 8.33 36.24 24.83 44.92 14.72 7.84 30.66 8.14 46.9.6zm1.23-84.42v27.44c0 .9 1.23 2.11 2.15 2.71 6.13 3.92 12.26 7.54 18.39 11.16 1.23.6 2.15 1.21 3.68 1.81 1.23-16.88-9.2-35.88-24.22-43.11z" fill="#e4d8ba" opacity=".37"/></svg>